<svg width="1670" height="1024" xmlns="http://www.w3.org/2000/svg" xmlns:xlink="http://www.w3.org/1999/xlink" xml:space="preserve" overflow="hidden"><g transform="translate(-19 28)"><path d="M22.4998 175.836C22.4998 85.628 95.6358 12.4999 185.854 12.4999L1522.15 12.4999C1612.36 12.4999 1685.5 85.628 1685.5 175.836L1685.5 829.163C1685.5 919.372 1612.36 992.5 1522.15 992.5L185.854 992.5C95.6358 992.5 22.4998 919.372 22.4998 829.163L22.4998 175.836Z" stroke="#196B24" stroke-width="6.875" stroke-miterlimit="8" fill="#FFFFFF" fill-rule="evenodd"/><text font-family="Arial,Arial_MSFontService,sans-serif" font-weight="400" font-size="92" transform="matrix(1 0 0 1 223.049 89)">Ουάιλντ</text><text font-family="Arial,Arial_MSFontService,sans-serif" font-weight="400" font-size="92" transform="matrix(1 0 0 1 546.174 89)">, Ο. (2013). «Η Αηδόνα </text><text font-family="Arial,Arial_MSFontService,sans-serif" font-weight="400" font-size="92" transform="matrix(1 0 0 1 176.734 188)">και το ρόδο». Στο </text><text font-family="Arial,Arial_MSFontService,sans-serif" font-style="italic" font-weight="400" font-size="92" transform="matrix(1 0 0 1 901.382 188)">Ο ευτυχισμένος </text><text font-family="Arial,Arial_MSFontService,sans-serif" font-style="italic" font-weight="400" font-size="92" transform="matrix(1 0 0 1 201.049 287)">πρίγκηπας και άλλες ιστορίες </text><text font-family="Arial,Arial_MSFontService,sans-serif" font-weight="400" font-size="92" transform="matrix(1 0 0 1 1393.82 287)">(Σ. </text><text font-family="Arial,Arial_MSFontService,sans-serif" font-weight="400" font-size="92" transform="matrix(1 0 0 1 322.415 386)">Σκουλικάρη</text><text font-family="Arial,Arial_MSFontService,sans-serif" font-weight="400" font-size="92" transform="matrix(1 0 0 1 792.826 386)">, Μετ.). Αθήνα: </text><text font-family="Arial,Arial_MSFontService,sans-serif" font-weight="400" font-size="92" transform="matrix(1 0 0 1 313.776 485)">Πατάκη,</text><text font-family="Arial,Arial_MSFontService,sans-serif" font-weight="400" font-size="92" transform="matrix(1 0 0 1 668.824 485)">σσ</text><text font-family="Arial,Arial_MSFontService,sans-serif" font-weight="400" font-size="92" transform="matrix(1 0 0 1 782.261 485)">. 39</text><text font-family="Arial,Arial_MSFontService,sans-serif" font-weight="400" font-size="92" transform="matrix(1 0 0 1 934.657 485)">-</text><text font-family="Arial,Arial_MSFontService,sans-serif" font-weight="400" font-size="92" transform="matrix(1 0 0 1 965.022 485)">46. Πρώτη </text><text font-family="Arial,Arial_MSFontService,sans-serif" font-weight="400" font-size="92" transform="matrix(1 0 0 1 319.459 584)">αγγλόφωνη έκδοση:  1888</text><text font-family="Arial,Arial_MSFontService,sans-serif" font-weight="700" font-size="183" transform="matrix(1 0 0 1 649.619 800)">1888</text></g></svg>