<svg width="973" height="987" xmlns="http://www.w3.org/2000/svg" xmlns:xlink="http://www.w3.org/1999/xlink" xml:space="preserve" overflow="hidden"><g transform="translate(-945 -1480)"><path d="M948.5 1644.45C948.5 1555.56 1020.58 1483.5 1109.5 1483.5L1753.5 1483.5C1842.42 1483.5 1914.5 1555.56 1914.5 1644.45L1914.5 2302.55C1914.5 2391.44 1842.42 2463.5 1753.5 2463.5L1109.5 2463.5C1020.58 2463.5 948.5 2391.44 948.5 2302.55L948.5 1644.45Z" stroke="#196B24" stroke-width="6.875" stroke-miterlimit="8" fill="#FFFFFF" fill-rule="evenodd"/><text font-family="Arial,Arial_MSFontService,sans-serif" font-weight="700" font-size="183" transform="matrix(1 0 0 1 1226.75 1788)">1971</text><text font-family="Arial,Arial_MSFontService,sans-serif" font-weight="400" font-size="92" transform="matrix(1 0 0 1 1180.18 1985)">Δημουλά</text><text font-family="Arial,Arial_MSFontService,sans-serif" font-weight="400" font-size="92" transform="matrix(1 0 0 1 1544.31 1985)">, Κ. </text><text font-family="Arial,Arial_MSFontService,sans-serif" font-weight="400" font-size="92" transform="matrix(1 0 0 1 1260.25 2084)">(72007). </text><text font-family="Arial,Arial_MSFontService,sans-serif" font-style="italic" font-weight="400" font-size="92" transform="matrix(1 0 0 1 1229.68 2183)">Ποιήματα</text><text font-family="Arial,Arial_MSFontService,sans-serif" font-weight="400" font-size="92" transform="matrix(1 0 0 1 1606.5 2183)">. </text><text font-family="Arial,Arial_MSFontService,sans-serif" font-weight="400" font-size="92" transform="matrix(1 0 0 1 1121.61 2282)">Αθήνα: Ίκαρος, </text><text font-family="Arial,Arial_MSFontService,sans-serif" font-weight="400" font-size="92" transform="matrix(1 0 0 1 1288.05 2381)">σ. 155.</text></g></svg>