<svg width="927" height="988" xmlns="http://www.w3.org/2000/svg" xmlns:xlink="http://www.w3.org/1999/xlink" xml:space="preserve" overflow="hidden"><g transform="translate(-1950 -9)"><path d="M1953.5 165.774C1953.5 81.1231 2022.15 12.4999 2106.84 12.4999L2720.16 12.4999C2804.85 12.4999 2873.5 81.1231 2873.5 165.774L2873.5 839.225C2873.5 923.877 2804.85 992.5 2720.16 992.5L2106.84 992.5C2022.15 992.5 1953.5 923.877 1953.5 839.225L1953.5 165.774Z" stroke="#196B24" stroke-width="6.875" stroke-miterlimit="8" fill="#FFFFFF" fill-rule="evenodd"/><text font-family="Arial,Arial_MSFontService,sans-serif" font-style="italic" font-weight="400" font-size="110" transform="matrix(1 0 0 1 2126.47 261)">Σούμχι</text><text font-family="Arial,Arial_MSFontService,sans-serif" font-style="italic" font-weight="400" font-size="110" transform="matrix(1 0 0 1 2459.33 261)">. Μια </text><text font-family="Arial,Arial_MSFontService,sans-serif" font-style="italic" font-weight="400" font-size="110" transform="matrix(1 0 0 1 2061.08 380)">ιστορία για την </text><text font-family="Arial,Arial_MSFontService,sans-serif" font-style="italic" font-weight="400" font-size="110" transform="matrix(1 0 0 1 2075.02 498)">αγάπη και την </text><text font-family="Arial,Arial_MSFontService,sans-serif" font-style="italic" font-weight="400" font-size="110" transform="matrix(1 0 0 1 2158.55 617)">περιπέτεια</text><text font-family="Arial,Arial_MSFontService,sans-serif" font-weight="700" font-size="183" transform="matrix(1 0 0 1 2208.97 845)">1978</text></g></svg>