<svg width="1774" height="987" xmlns="http://www.w3.org/2000/svg" xmlns:xlink="http://www.w3.org/1999/xlink" xml:space="preserve" overflow="hidden"><g transform="translate(-1447 -9)"><path d="M1450.5 175.836C1450.5 85.628 1526.43 12.4999 1620.09 12.4999L3047.91 12.4999C3141.57 12.4999 3217.5 85.628 3217.5 175.836L3217.5 829.163C3217.5 919.372 3141.57 992.5 3047.91 992.5L1620.09 992.5C1526.43 992.5 1450.5 919.372 1450.5 829.163L1450.5 175.836Z" stroke="#196B24" stroke-width="6.875" stroke-miterlimit="8" fill="#FFFFFF" fill-rule="evenodd"/><text font-family="Arial,Arial_MSFontService,sans-serif" font-weight="400" font-size="92" transform="matrix(1 0 0 1 1575.8 161)">Όζ</text><text font-family="Arial,Arial_MSFontService,sans-serif" font-weight="400" font-size="92" transform="matrix(1 0 0 1 1687.52 161)">, Α. (2001). </text><text font-family="Arial,Arial_MSFontService,sans-serif" font-style="italic" font-weight="400" font-size="92" transform="matrix(1 0 0 1 2159.69 161)">Σούμχι</text><text font-family="Arial,Arial_MSFontService,sans-serif" font-style="italic" font-weight="400" font-size="92" transform="matrix(1 0 0 1 2436.99 161)">. Μια ιστορία για </text><text font-family="Arial,Arial_MSFontService,sans-serif" font-style="italic" font-weight="400" font-size="92" transform="matrix(1 0 0 1 1635.61 260)">την αγάπη και την περιπέτεια </text><text font-family="Arial,Arial_MSFontService,sans-serif" font-weight="400" font-size="92" transform="matrix(1 0 0 1 2827.3 260)">(Χ.Κ. </text><text font-family="Arial,Arial_MSFontService,sans-serif" font-weight="400" font-size="92" transform="matrix(1 0 0 1 1549.56 359)">Παπαδοπούλου, Μετ. από τα Εβραϊκά. </text><text font-family="Arial,Arial_MSFontService,sans-serif" font-weight="400" font-size="92" transform="matrix(1 0 0 1 1583.73 458)">Φ. </text><text font-family="Arial,Arial_MSFontService,sans-serif" font-weight="400" font-size="92" transform="matrix(1 0 0 1 1707.48 458)">Νέγκριν</text><text font-family="Arial,Arial_MSFontService,sans-serif" font-weight="400" font-size="92" transform="matrix(1 0 0 1 2024.88 458)">, Εικονογράφηση). Αθήνα: </text><text font-family="Arial,Arial_MSFontService,sans-serif" font-weight="400" font-size="92" transform="matrix(1 0 0 1 1682.55 557)">Καστανιώτης, </text><text font-family="Arial,Arial_MSFontService,sans-serif" font-weight="400" font-size="92" transform="matrix(1 0 0 1 2259.18 557)">σσ</text><text font-family="Arial,Arial_MSFontService,sans-serif" font-weight="400" font-size="92" transform="matrix(1 0 0 1 2372.61 557)">. 13</text><text font-family="Arial,Arial_MSFontService,sans-serif" font-weight="400" font-size="92" transform="matrix(1 0 0 1 2525.01 557)">-</text><text font-family="Arial,Arial_MSFontService,sans-serif" font-weight="400" font-size="92" transform="matrix(1 0 0 1 2555.37 557)">18. Πρώτη </text><text font-family="Arial,Arial_MSFontService,sans-serif" font-weight="400" font-size="92" transform="matrix(1 0 0 1 1799.03 656)">αγγλόφωνη έκδοση:  1978</text><text font-family="Arial,Arial_MSFontService,sans-serif" font-weight="700" font-size="165" transform="matrix(1 0 0 1 2149.82 856)">1978</text></g></svg>