<svg width="1036" height="987" xmlns="http://www.w3.org/2000/svg" xmlns:xlink="http://www.w3.org/1999/xlink" xml:space="preserve" overflow="hidden"><g transform="translate(-2909 -1480)"><path d="M2912.5 1646.84C2912.5 1556.63 2985.64 1483.5 3075.86 1483.5L3778.14 1483.5C3868.36 1483.5 3941.5 1556.63 3941.5 1646.84L3941.5 2300.16C3941.5 2390.37 3868.36 2463.5 3778.14 2463.5L3075.86 2463.5C2985.64 2463.5 2912.5 2390.37 2912.5 2300.16L2912.5 1646.84Z" stroke="#0F9ED5" stroke-width="6.875" stroke-miterlimit="8" fill="#FFFFFF" fill-rule="evenodd"/><text font-family="Arial,Arial_MSFontService,sans-serif" font-weight="700" font-size="183" transform="matrix(1 0 0 1 3222.81 1789)">2012</text><text font-family="Arial,Arial_MSFontService,sans-serif" font-weight="400" font-size="110" transform="matrix(1 0 0 1 3128.09 2002)">Η </text><text font-family="Arial,Arial_MSFontService,sans-serif" font-style="italic" font-weight="400" font-size="110" transform="matrix(1 0 0 1 3238.09 2002)">Αλφαβήτα </text><text font-family="Arial,Arial_MSFontService,sans-serif" font-style="italic" font-weight="400" font-size="110" transform="matrix(1 0 0 1 3101.92 2121)">της εφηβείας, </text><text font-family="Arial,Arial_MSFontService,sans-serif" font-style="italic" font-weight="400" font-size="110" transform="matrix(1 0 0 1 3100.2 2239)">Μυθιστόρημα </text><text font-family="Arial,Arial_MSFontService,sans-serif" font-style="italic" font-weight="400" font-size="110" transform="matrix(1 0 0 1 3130.57 2358)">για εφήβους </text></g></svg>