<svg width="1371" height="987" xmlns="http://www.w3.org/2000/svg" xmlns:xlink="http://www.w3.org/1999/xlink" xml:space="preserve" overflow="hidden"><g transform="translate(-2574 -1480)"><path d="M2577.5 1646.84C2577.5 1556.63 2650.63 1483.5 2740.83 1483.5L3778.17 1483.5C3868.37 1483.5 3941.5 1556.63 3941.5 1646.84L3941.5 2300.16C3941.5 2390.37 3868.37 2463.5 3778.17 2463.5L2740.83 2463.5C2650.63 2463.5 2577.5 2390.37 2577.5 2300.16L2577.5 1646.84Z" stroke="#0F9ED5" stroke-width="6.875" stroke-miterlimit="8" fill="#FFFFFF" fill-rule="evenodd"/><text font-family="Arial,Arial_MSFontService,sans-serif" font-weight="700" font-size="183" transform="matrix(1 0 0 1 3054.7 1789)">2012</text><text font-family="Arial,Arial_MSFontService,sans-serif" font-weight="400" font-size="92" transform="matrix(1 0 0 1 2765.1 1986)">Δεληβοριά</text><text font-family="Arial,Arial_MSFontService,sans-serif" font-weight="400" font-size="92" transform="matrix(1 0 0 1 3193.65 1986)">, Μ. (2012). Η </text><text font-family="Arial,Arial_MSFontService,sans-serif" font-style="italic" font-weight="400" font-size="92" transform="matrix(1 0 0 1 2773.22 2085)">Αλφαβήτα της εφηβείας, </text><text font-family="Arial,Arial_MSFontService,sans-serif" font-style="italic" font-weight="400" font-size="92" transform="matrix(1 0 0 1 2727.86 2184)">Μυθιστόρημα για εφήβους </text><text font-family="Arial,Arial_MSFontService,sans-serif" font-style="italic" font-weight="400" font-size="92" transform="matrix(1 0 0 1 2849.71 2283)">και όχι μόνο</text><text font-family="Arial,Arial_MSFontService,sans-serif" font-weight="400" font-size="92" transform="matrix(1 0 0 1 3334.65 2283)">. Αθήνα: </text><text font-family="Arial,Arial_MSFontService,sans-serif" font-weight="400" font-size="92" transform="matrix(1 0 0 1 2871.67 2382)">Κέδρος, </text><text font-family="Arial,Arial_MSFontService,sans-serif" font-weight="400" font-size="92" transform="matrix(1 0 0 1 3222.29 2382)">σσ</text><text font-family="Arial,Arial_MSFontService,sans-serif" font-weight="400" font-size="92" transform="matrix(1 0 0 1 3335.73 2382)">. 49</text><text font-family="Arial,Arial_MSFontService,sans-serif" font-weight="400" font-size="92" transform="matrix(1 0 0 1 3488.12 2382)">-</text><text font-family="Arial,Arial_MSFontService,sans-serif" font-weight="400" font-size="92" transform="matrix(1 0 0 1 3518.49 2382)">52.</text></g></svg>