<svg width="1280" height="720" xmlns="http://www.w3.org/2000/svg" xmlns:xlink="http://www.w3.org/1999/xlink" overflow="hidden"><g><rect x="0" y="0" width="1280" height="720" fill="#FFFFFF"/><path d="M6 315.501 1185 315.501 1185 271 1274 360 1185 449 1185 404.501 6 404.501 50.5006 360Z" fill="#CCD4CC" fill-rule="evenodd"/><path d="M7.50005 34.6672C7.50005 18.0064 21.0064 4.50005 37.6672 4.50005L158.333 4.50005C174.994 4.50005 188.5 18.0064 188.5 34.6672L188.5 259.333C188.5 275.994 174.994 289.5 158.333 289.5L37.6672 289.5C21.0064 289.5 7.50005 275.994 7.50005 259.333Z" stroke="#196B24" stroke-width="2.66667" stroke-miterlimit="8" fill="#FFFFFF" fill-rule="evenodd"/><text font-family="Aptos,Aptos_MSFontService,sans-serif" font-style="italic" font-weight="400" font-size="29" transform="translate(75.2364 96)">Τομ</text><text font-family="Aptos,Aptos_MSFontService,sans-serif" font-style="italic" font-weight="400" font-size="29" transform="translate(59.6564 128)">Σόγερ</text><text font-family="Aptos,Aptos_MSFontService,sans-serif" font-weight="700" font-size="48" transform="translate(46.1031 237)">1876</text><path d="M67 360C67 343.431 80.4315 330 97 330 113.569 330 127 343.431 127 360 127 376.569 113.569 390 97 390 80.4315 390 67 376.569 67 360Z" stroke="#FFFFFF" stroke-width="2" stroke-miterlimit="8" fill="#196B24" fill-rule="evenodd"/><path d="M196.5 471.168C196.5 449.26 214.26 431.5 236.168 431.5L394.833 431.5C416.74 431.5 434.5 449.26 434.5 471.168L434.5 676.833C434.5 698.74 416.74 716.5 394.833 716.5L236.168 716.5C214.26 716.5 196.5 698.74 196.5 676.833Z" stroke="#188C54" stroke-width="2.66667" stroke-miterlimit="8" fill="#FFFFFF" fill-rule="evenodd"/><text font-family="Aptos,Aptos_MSFontService,sans-serif" font-weight="700" font-size="48" transform="translate(263.554 510)">1938</text><text font-family="Aptos,Aptos_MSFontService,sans-serif" font-style="italic" font-weight="400" font-size="29" transform="translate(244.188 567)">Ο Γυρισμός</text><text font-family="Aptos,Aptos_MSFontService,sans-serif" font-style="italic" font-weight="400" font-size="29" transform="translate(292.434 600)">του</text><text font-family="Aptos,Aptos_MSFontService,sans-serif" font-style="italic" font-weight="400" font-size="29" transform="translate(238.428 632)">ξενιτεμένου</text><path d="M285 360C285 343.431 298.431 330 315 330 331.569 330 345 343.431 345 360 345 376.569 331.569 390 315 390 298.431 390 285 376.569 285 360Z" stroke="#FFFFFF" stroke-width="2" stroke-miterlimit="8" fill="#188C54" fill-rule="evenodd"/><path d="M442.5 34.6672C442.5 18.0064 456.006 4.50005 472.667 4.50005L593.333 4.50005C609.994 4.50005 623.5 18.0064 623.5 34.6672L623.5 259.333C623.5 275.994 609.994 289.5 593.333 289.5L472.667 289.5C456.006 289.5 442.5 275.994 442.5 259.333Z" stroke="#15AF9F" stroke-width="2.66667" stroke-miterlimit="8" fill="#FFFFFF" fill-rule="evenodd"/><text font-family="Aptos,Aptos_MSFontService,sans-serif" font-style="italic" font-weight="400" font-size="29" transform="translate(508.425 135)">Ε.Π.</text><text font-family="Aptos,Aptos_MSFontService,sans-serif" font-weight="700" font-size="48" transform="translate(486.365 249)">1995</text><path d="M502 360C502 343.431 515.431 330 532 330 548.569 330 562 343.431 562 360 562 376.569 548.569 390 532 390 515.431 390 502 376.569 502 360Z" stroke="#FFFFFF" stroke-width="2" stroke-miterlimit="8" fill="#15AF9F" fill-rule="evenodd"/><path d="M631.5 479.001C631.5 452.767 652.767 431.5 679.001 431.5L1100 431.5C1126.23 431.5 1147.5 452.767 1147.5 479.001L1147.5 668.999C1147.5 695.233 1126.23 716.5 1100 716.5L679.001 716.5C652.767 716.5 631.5 695.233 631.5 668.999Z" stroke="#0F9ED5" stroke-width="2.66667" stroke-miterlimit="8" fill="#FFFFFF" fill-rule="evenodd"/><text font-family="Aptos,Aptos_MSFontService,sans-serif" font-weight="700" font-size="53" transform="translate(831.657 519)">2013</text><text font-family="Aptos,Aptos_MSFontService,sans-serif" font-style="italic" font-weight="400" font-size="29" transform="translate(723.257 583)">Ο μαύρος</text><text font-family="Aptos,Aptos_MSFontService,sans-serif" font-style="italic" font-weight="400" font-size="32" transform="translate(851.357 583)">κότσυφας</text><text font-family="Aptos,Aptos_MSFontService,sans-serif" font-style="italic" font-weight="400" font-size="29" transform="translate(993.417 583)">και ο</text><text font-family="Aptos,Aptos_MSFontService,sans-serif" font-style="italic" font-weight="400" font-size="29" transform="translate(793.857 616)">άσπρος γλάρος</text><text font-family="Aptos,Aptos_MSFontService,sans-serif" font-weight="400" font-size="24" transform="translate(675.264 656)">Κρόουθερ</text><text font-family="Aptos,Aptos_MSFontService,sans-serif" font-weight="400" font-size="24" transform="translate(780.944 656)">, Κ. (2013).</text><text font-family="Aptos,Aptos_MSFontService,sans-serif" font-style="italic" font-weight="400" font-size="24" transform="translate(895.11 656)">Ο μαύρος κότσυφας</text><text font-family="Aptos,Aptos_MSFontService,sans-serif" font-style="italic" font-weight="400" font-size="24" transform="translate(691.237 685)">και ο</text><text font-family="Aptos,Aptos_MSFontService,sans-serif" font-style="italic" font-weight="400" font-size="27" transform="translate(745.677 685)">άσπρος</text><text font-family="Aptos,Aptos_MSFontService,sans-serif" font-style="italic" font-weight="400" font-size="24" transform="translate(837.33 685)">γλάρος</text><text font-family="Aptos,Aptos_MSFontService,sans-serif" font-weight="400" font-size="24" transform="translate(914.31 685)">(Ε.</text><text font-family="Aptos,Aptos_MSFontService,sans-serif" font-weight="400" font-size="24" transform="translate(946.417 685)">Μαρμαρίδου</text><text font-family="Aptos,Aptos_MSFontService,sans-serif" font-weight="400" font-size="24" transform="translate(1079.18 685)">,</text><text font-family="Aptos,Aptos_MSFontService,sans-serif" font-weight="400" font-size="24" transform="translate(706.964 712)">Μετ.). Αθήνα: Σύγχρονοι Ορίζοντες.</text><path d="M859 360C859 343.431 872.431 330 889 330 905.569 330 919 343.431 919 360 919 376.569 905.569 390 889 390 872.431 390 859 376.569 859 360Z" stroke="#FFFFFF" stroke-width="2" stroke-miterlimit="8" fill="#0F9ED5" fill-rule="evenodd"/></g></svg>