<svg width="4356" height="613" xmlns="http://www.w3.org/2000/svg" xmlns:xlink="http://www.w3.org/1999/xlink" xml:space="preserve" overflow="hidden"><defs><clipPath id="clip0"><rect x="22" y="931" width="4356" height="613"/></clipPath></defs><g clip-path="url(#clip0)" transform="translate(-22 -931)"><path d="M22 1084.25 4071.5 1084.25 4071.5 931 4378 1237.5 4071.5 1544 4071.5 1390.75 22 1390.75 175.251 1237.5Z" fill="#F7D5CD" fill-rule="evenodd"/><path d="M363.5 1238C363.5 1181.39 409.615 1135.5 466.5 1135.5 523.385 1135.5 569.5 1181.39 569.5 1238 569.5 1294.61 523.385 1340.5 466.5 1340.5 409.615 1340.5 363.5 1294.61 363.5 1238Z" stroke="#FFFFFF" stroke-width="6.875" stroke-miterlimit="8" fill="#E97132" fill-rule="evenodd"/><path d="M1328.5 1238C1328.5 1181.39 1374.61 1135.5 1431.5 1135.5 1488.39 1135.5 1534.5 1181.39 1534.5 1238 1534.5 1294.61 1488.39 1340.5 1431.5 1340.5 1374.61 1340.5 1328.5 1294.61 1328.5 1238Z" stroke="#FFFFFF" stroke-width="6.875" stroke-miterlimit="8" fill="#196B24" fill-rule="evenodd"/><path d="M2310.5 1238C2310.5 1181.39 2356.61 1135.5 2413.5 1135.5 2470.39 1135.5 2516.5 1181.39 2516.5 1238 2516.5 1294.61 2470.39 1340.5 2413.5 1340.5 2356.61 1340.5 2310.5 1294.61 2310.5 1238Z" stroke="#FFFFFF" stroke-width="6.875" stroke-miterlimit="8" fill="#0F9ED5" fill-rule="evenodd"/><path d="M3324.5 1238C3324.5 1181.39 3370.61 1135.5 3427.5 1135.5 3484.39 1135.5 3530.5 1181.39 3530.5 1238 3530.5 1294.61 3484.39 1340.5 3427.5 1340.5 3370.61 1340.5 3324.5 1294.61 3324.5 1238Z" stroke="#FFFFFF" stroke-width="6.875" stroke-miterlimit="8" fill="#A02B93" fill-rule="evenodd"/></g></svg>